<svg xmlns="http://www.w3.org/2000/svg" width="58" height="58" viewBox="0 0 58 58"><defs><style>.cls-1{fill:#add136;fill-rule:evenodd}</style></defs><path class="cls-1" d="M57.033 17.4a.965.965 0 0 1-.966-.965V3.455l-10.781 10.78a25.735 25.735 0 0 1 2.3 2.9l.018-.018c.149.215.281.445.423.665l.105.166a26.009 26.009 0 1 1-7.311-7.605l-1.381 1.381A24.179 24.179 0 0 0 1.932 31.891c0 .347.038.686.052 1.032L14.011 20.9a.966.966 0 0 1 1.367 0l10.253 10.252 29.221-29.22H41.567a.966.966 0 1 1 0-1.932h15.466A.966.966 0 0 1 58 .966v15.467a.966.966 0 0 1-.967.967z"/></svg>